<svg width="309" height="131" xmlns="http://www.w3.org/2000/svg"><g fill="#F1F1F1" fill-rule="nonzero"><path d="M10.371 115.382H0v-3.888h26.512v3.888H16.17l-.035 15.294H10.37zM48.362 111.494h23.34v3.888H53.994v3.653h14.187v3.683H53.995v4.164H71.7v3.765H48.362zM93.551 111.494h5.454l14.003 13.835-.053-13.835h5.46v19.182h-5.46l-13.938-13.705v13.705H93.55zM140.265 125.3l5.287-.9c.732 1.694 3.137 2.97 8.704 2.97 5.448 0 7.59-.723 7.59-2.07 0-1.724-2.56-1.994-7.846-2.418-5.728-.453-12.42-1.047-12.42-5.64 0-3.713 4.353-5.736 12.295-5.736 8.77 0 11.812 2.394 12.937 4.341l-5.191 1.394c-.864-1.394-3.197-2.265-7.776-2.265-4.578 0-6.787.648-6.787 1.906 0 1.647 2.31 1.87 7.43 2.27 5.859.448 12.872.995 12.872 5.736 0 2.988-2.75 5.783-12.997 5.783-9.687-.012-12.98-2.506-14.098-5.371zM189.204 122.83v-11.336h5.484v11.27c0 2.824 3.12 4.036 7.99 4.036s7.84-1.218 7.84-4.041v-11.235h5.478v11.335c0 5.03-4.763 7.83-13.384 7.83-8.62 0-13.408-2.83-13.408-7.86zM237.817 111.494h16.23c5.954 0 9.526 1.682 9.526 6.088 0 3.924-3.447 5.336-6.746 6.142l7.02 6.935h-5.954l-7.031-6.941h-7.472v6.93h-5.454l-.12-19.154zm16.04 8.63c2.88 0 4.226-.724 4.226-2.412s-1.345-2.436-4.227-2.436h-10.472v4.848h10.472zM285.68 111.494H309v3.888h-17.689v3.653H305.5v3.683h-14.188v4.164H309v3.783h-23.339zM172.393 66.638l16.82-16.81a3.296 3.296 0 000-4.659l-2.497-2.496a3.29 3.29 0 010-4.658l1.266-1.266a3.289 3.289 0 014.662 0l8.419 8.408a3.285 3.285 0 010 4.659l-16.82 16.81a3.302 3.302 0 000 4.664l10.892 10.886a3.3 3.3 0 004.667 0l32.38-32.36a3.296 3.296 0 000-4.659l-32.38-32.348a3.307 3.307 0 00-4.667 0l-81.27 81.227a3.307 3.307 0 01-4.667 0l-44.23-44.208a3.285 3.285 0 010-4.659L109.18.966a3.307 3.307 0 014.667 0l22.76 22.734a3.302 3.302 0 010 4.665l-16.814 16.792a3.285 3.285 0 000 4.659l2.497 2.495a3.302 3.302 0 010 4.665l-1.266 1.254a3.289 3.289 0 01-4.662 0l-8.425-8.402a3.285 3.285 0 010-4.659l16.82-16.81a3.297 3.297 0 000-4.665L113.865 12.81a3.307 3.307 0 00-4.667 0L76.824 45.157a3.285 3.285 0 000 4.659l32.374 32.36a3.3 3.3 0 004.667 0l81.27-81.21a3.3 3.3 0 014.667 0l44.23 44.191a3.285 3.285 0 010 4.659l-44.23 44.208a3.307 3.307 0 01-4.667 0l-22.742-22.722a3.297 3.297 0 010-4.664z"/></g></svg>