<svg xmlns="http://www.w3.org/2000/svg" width="38" height="20" viewBox="0 0 38 20">
  <path fill="#04B8A6" d="M22.7558926,14.0294968 L26.2876696,10.490211 C26.558003,10.2192911 26.558003,9.78005562 26.2876696,9.50913575 L25.7633103,8.9836616 C25.4929769,8.71274173 25.4929769,8.27350627 25.7633103,8.00258639 L26.0279801,7.73664086 C26.2985693,7.4656511 26.7370962,7.4656511 27.0076854,7.73664086 L28.7757083,9.50913575 C28.9058771,9.63905006 28.9790498,9.81557079 28.9790498,9.99967335 C28.9790498,10.1837759 28.9058771,10.3602966 28.7757083,10.490211 L25.2446428,14.0294968 C24.9743094,14.3004167 24.9743094,14.7396521 25.2446428,15.010572 L27.5320447,17.3028371 C27.8023898,17.5737452 28.2406934,17.5737452 28.5110385,17.3028371 L35.3084998,10.490211 C35.4386685,10.3602966 35.5118412,10.1837759 35.5118412,9.99967335 C35.5118412,9.81557079 35.4386685,9.63905006 35.3084998,9.50913575 L28.5110385,2.69722258 C28.3813998,2.5667771 28.2052536,2.49344878 28.0215416,2.49344878 C27.8378296,2.49344878 27.6616834,2.5667771 27.5320447,2.69722258 L10.4686668,19.7961656 C10.3389064,19.9266541 10.1626424,20 9.97881412,20 C9.79498582,20 9.61872187,19.9266541 9.48896149,19.7961656 L0.202750044,10.490211 C-0.0675833479,10.2192911 -0.0675833479,9.78005562 0.202750044,9.50913575 L9.4854041,0.203181106 C9.7557492,-0.0677270353 10.1940528,-0.0677270353 10.4643979,0.203181106 L15.2433959,4.98948769 C15.3734326,5.11961718 15.4465019,5.29622095 15.4465019,5.48038179 C15.4465019,5.66454262 15.3734326,5.84114639 15.2433959,5.97127588 L11.7123304,9.50984874 C11.5821617,9.63976305 11.5089889,9.81628378 11.5089889,10.0003863 C11.5089889,10.1844889 11.5821617,10.3610096 11.7123304,10.4909239 L12.2359782,11.0163981 C12.3661899,11.1464343 12.4393802,11.323073 12.4393802,11.5072922 C12.4393802,11.6915113 12.3661899,11.86815 12.2359782,11.9981863 L11.9713084,12.2634188 C11.7009633,12.534327 11.2626597,12.534327 10.9923146,12.2634188 L9.22429166,10.490211 C8.95395827,10.2192911 8.95395827,9.78005562 9.22429166,9.50913575 L12.7553572,5.9698499 C13.0256906,5.69893003 13.0256906,5.25969457 12.7553572,4.9887747 L10.4686668,2.69722258 C10.3389064,2.56673402 10.1626424,2.49338817 9.97881412,2.49338817 C9.79498582,2.49338817 9.61872187,2.56673402 9.48896149,2.69722258 L2.69150025,9.50913575 C2.42116685,9.78005562 2.42116685,10.2192911 2.69150025,10.490211 L9.48896149,17.3028371 C9.75955069,17.5738269 10.1980776,17.5738269 10.4686668,17.3028371 L27.5320447,0.203181106 C27.8023898,-0.0677270353 28.2406934,-0.0677270353 28.5110385,0.203181106 L37.79725,9.50913575 C38.0675833,9.78005562 38.0675833,10.2192911 37.79725,10.490211 L28.5110385,19.7961656 C28.3813998,19.9266111 28.2052536,20 28.0215416,20 C27.8378296,20 27.6616834,19.9266111 27.5320447,19.7961656 L22.7558926,15.010572 C22.4855592,14.7396521 22.4855592,14.3004167 22.7558926,14.0294968 Z"/>
</svg>
