<svg width="414" height="176" xmlns="http://www.w3.org/2000/svg"><g fill="#012949" fill-rule="nonzero"><path d="M13.9 154.6H0v-5.2h35.5v5.2H21.7V175h-7.8zM64.8 149.4h31.3v5.2H72.3v4.9h19v5h-19v5.5h23.8v5H64.8zM125.3 149.4h7.3l18.8 18.5v-18.5h7.3V175h-7.4l-18.6-18.4v18.4h-7.4zM188 167.9l7-1.2c1 2.2 4.2 4 11.7 4 7.3 0 10.1-1 10.1-2.8 0-2.3-3.4-2.7-10.5-3.3-7.6-.6-16.6-1.4-16.6-7.5 0-5 5.8-7.7 16.5-7.7 11.7 0 15.8 3.2 17.3 5.8l-7 1.9c-1.1-1.9-4.2-3-10.4-3-6.1 0-9 .8-9 2.5 0 2.2 3 2.5 9.9 3 7.8.6 17.2 1.4 17.2 7.7 0 4-3.7 7.8-17.4 7.8-13 0-17.4-3.4-18.9-7.2zM253.5 164.6v-15.2h7.3v15c0 3.9 4.2 5.5 10.7 5.5 6.6 0 10.6-1.6 10.6-5.4v-15h7.3v15.1c0 6.7-6.4 10.5-18 10.5-11.5 0-17.9-3.8-17.9-10.5zM318.6 149.4h21.8c8 0 12.7 2.2 12.7 8.1 0 5.3-4.6 7.2-9 8.3l9.4 9.3h-8l-9.4-9.3h-10v9.2h-7.3l-.2-25.6zm21.5 11.5c3.9 0 5.7-1 5.7-3.2 0-2.3-1.8-3.3-5.7-3.3h-14v6.5h14zM382.8 149.4H414v5.2h-23.7v4.9h19v5h-19v5.5H414v5h-31.3zM231 89.3l22.5-22.5a4.4 4.4 0 000-6.3l-3.3-3.3a4.4 4.4 0 010-6.3l1.7-1.7a4.4 4.4 0 016.2 0l11.3 11.3a4.4 4.4 0 010 6.2l-22.6 22.6a4.4 4.4 0 000 6.2l14.6 14.6a4.4 4.4 0 006.3 0l43.4-43.4a4.4 4.4 0 000-6.2l-43.4-43.3a4.4 4.4 0 00-6.3 0L152.6 126a4.4 4.4 0 01-6.3 0L87 66.8a4.4 4.4 0 010-6.3l59.3-59.2a4.4 4.4 0 016.2 0L183 31.8a4.4 4.4 0 010 6.2l-22.5 22.5a4.4 4.4 0 000 6.2l3.3 3.4a4.4 4.4 0 010 6.2l-1.7 1.7a4.4 4.4 0 01-6.2 0l-11.3-11.2a4.4 4.4 0 010-6.3L167.2 38a4.4 4.4 0 000-6.3l-14.6-14.5a4.4 4.4 0 00-6.3 0l-43.4 43.3a4.4 4.4 0 000 6.2l43.4 43.4a4.4 4.4 0 006.3 0L261.4 1.3a4.4 4.4 0 016.3 0L327 60.5a4.4 4.4 0 010 6.2L267.7 126a4.4 4.4 0 01-6.3 0L231 95.5a4.4 4.4 0 010-6.2z"/></g></svg>