<svg width="213" height="14" xmlns="http://www.w3.org/2000/svg"><g fill="#F1F1F1" fill-rule="nonzero"><path d="M7.15 3.025H0V.341h18.275v2.684h-7.128l-.025 10.557H7.149zM33.337.341h16.088v2.684H37.22v2.522H47v2.541h-9.78v2.875h12.205v2.599H33.337zM64.487.341h3.76l9.652 9.55-.037-9.55h3.763v13.241h-3.763l-9.608-9.46v9.46h-3.767zM96.687 9.871l3.645-.621c.504 1.17 2.162 2.05 6 2.05 3.755 0 5.232-.5 5.232-1.429 0-1.19-1.764-1.377-5.409-1.669-3.948-.313-8.56-.723-8.56-3.894 0-2.562 3-3.959 8.474-3.959 6.045 0 8.143 1.653 8.918 2.997l-3.579.962c-.595-.962-2.203-1.563-5.36-1.563-3.155 0-4.678.447-4.678 1.315 0 1.137 1.592 1.292 5.122 1.568 4.038.308 8.873.686 8.873 3.959 0 2.062-1.896 3.991-8.96 3.991-6.677-.008-8.946-1.73-9.718-3.707zM130.422 8.166V.34h3.78v7.78c0 1.949 2.15 2.785 5.508 2.785 3.357 0 5.405-.84 5.405-2.79V.362h3.776v7.825c0 3.472-3.284 5.404-9.226 5.404-5.943 0-9.243-1.953-9.243-5.424zM163.932.341h11.188c4.104 0 6.566 1.161 6.566 4.203 0 2.708-2.376 3.682-4.65 4.239l4.839 4.787h-4.104l-4.847-4.791h-5.15v4.783h-3.76l-.082-13.22zm11.056 5.957c1.987 0 2.914-.5 2.914-1.665s-.927-1.681-2.914-1.681h-7.219v3.346h7.22zM196.924.341H213v2.684h-12.193v2.522h9.78v2.541h-9.78v2.875H213v2.611h-16.088z"/></g></svg>